# xmcd CD database file
#
# Track frame offsets:
#	150
#	12431
#	30043
#	47005
#	66979
#	80165
#	94624
#	108300
#	123784
#	142449
#	158792
#	173365
#
# Disc length: 2515 seconds
#
# Revision: 0
# Processed by: cddbd v1.5.2PL0 Copyright (c) Steve Scherf et al.
# Submitted via: CDex 1.51
#
DISCID=9309d10c
DTITLE=Hammond Gamble - Ninety Mile Days
DYEAR=1900
DGENRE=Blues
TTITLE0=I had a dream
TTITLE1=Ninety mile days
TTITLE2=It's been too long
TTITLE3=You cheated me
TTITLE4=Memory No. 1
TTITLE5=Back where I belong
TTITLE6=Is this the last time
TTITLE7=Waiting for rain
TTITLE8=For the first time
TTITLE9=Madelaine
TTITLE10=Strangers girl
TTITLE11=I'lllook over my shoulder
EXTD=
EXTT0=
EXTT1=
EXTT2=
EXTT3=
EXTT4=
EXTT5=
EXTT6=
EXTT7=
EXTT8=
EXTT9=
EXTT10=
EXTT11=
PLAYORDER=
